<?xml version="1.0" encoding="utf-8"?>
<!-- Generator: Adobe Illustrator 25.0.0, SVG Export Plug-In . SVG Version: 6.00 Build 0)  -->
<svg version="1.1" id="Ebene_1" xmlns="http://www.w3.org/2000/svg" xmlns:xlink="http://www.w3.org/1999/xlink" x="0px" y="0px"
	 viewBox="0 0 413 145" style="enable-background:new 0 0 413 145;" xml:space="preserve">
<style type="text/css">
	.st0{fill:#8763FB;}
</style>
<g id="Ebene_2_1_">
	<g id="Ebene_1-2">
		<path d="M403,10v125H10V10H403 M413,0H0v145h413V0z"/>
		<path d="M53.3,109.8c0,9.3-7.5,16.8-16.8,16.8l0,0c-9.3,0-16.8-7.5-16.8-16.8l0,0v-7.2h9.6v7.2c0,3.9,3.2,7.2,7.1,7.2c0,0,0,0,0,0
			c3.9,0,7.2-3.2,7.2-7.1c0,0,0,0,0-0.1V96.7c0-6.9-2.1-12.3-6.2-16.4c-3.8-3.1-7.7-6.3-11.5-9.4c-4.1-4.5-6.2-10.6-6.2-18.4V35.7
			c-0.1-4.5,1.7-8.7,4.9-11.9c3.1-3.2,7.4-5,11.9-4.9c4.5-0.1,8.7,1.7,11.8,4.9c3.2,3.1,5,7.4,4.9,11.9v7.2h-9.6v-7.2
			c0-3.9-3.2-7.2-7.1-7.2c0,0,0,0-0.1,0c-3.9,0-7.2,3.2-7.2,7.1c0,0,0,0,0,0.1v13.2c0,6.9,2.1,12.3,6.2,16.4
			c3.8,3.1,7.7,6.3,11.5,9.4c4.1,4.5,6.2,10.6,6.2,18.4V109.8z"/>
		<path d="M99.2,109.8c0,9.3-7.5,16.8-16.8,16.8l0,0c-9.3,0-16.8-7.5-16.8-16.8l0,0V35.7c-0.1-4.5,1.7-8.7,4.9-11.9
			c6.5-6.5,17.1-6.5,23.7,0c3.2,3.1,5,7.4,4.9,11.9L99.2,109.8z M89.7,109.8V35.7c0-4-3.2-7.2-7.2-7.2s-7.2,3.2-7.2,7.2v74.2
			c0,4,3.2,7.2,7.2,7.2S89.7,113.8,89.7,109.8z"/>
		<path d="M136.8,28.5H126v98.1h-9.6V28.5h-12v-9.6h32.3L136.8,28.5z"/>
		<path d="M175.5,126.6H142l21.3-98.1H142v-9.6h33.5L154.2,117h21.3V126.6z"/>
		<path d="M221.4,126.6h-10.7l-13.2-44.9v44.9h-9.6V18.9h9.6v44.9l13.2-44.9h10.7l-16.7,53.8L221.4,126.6z"/>
		<path d="M267.3,109.8c0,9.3-7.5,16.8-16.8,16.8s-16.8-7.5-16.8-16.8V35.7c-0.1-4.5,1.7-8.7,4.9-11.9c6.5-6.5,17.1-6.5,23.7,0
			c3.2,3.1,5,7.4,4.9,11.9L267.3,109.8z M257.7,109.8V35.7c0-4-3.2-7.2-7.2-7.2c-4,0-7.2,3.2-7.2,7.2v74.2c0,4,3.2,7.2,7.2,7.2
			C254.5,117,257.7,113.8,257.7,109.8z"/>
		<path class="st0" d="M313.2,126.6h-9.6L289.3,65v61.6h-9.6V18.9h9.5l14.4,61.8V18.9h9.6L313.2,126.6z"/>
		<path class="st0" d="M354.3,126.6h-28.7V18.9h28.7v9.6h-19.1V68h19.1v9.6h-19.1V117h19.1L354.3,126.6z"/>
		<path class="st0" d="M391.9,28.5h-10.8v98.1h-9.6V28.5h-12v-9.6h32.3L391.9,28.5z"/>
	</g>
</g>
</svg>
